<?xml version="1.0" standalone="no"?>
<!DOCTYPE svg PUBLIC "-//W3C//DTD SVG 20010904//EN"
 "http://www.w3.org/TR/2001/REC-SVG-20010904/DTD/svg10.dtd">
<svg version="1.0" xmlns="http://www.w3.org/2000/svg"
 width="182.000000pt" height="168.000000pt" viewBox="0 0 182.000000 168.000000"
 preserveAspectRatio="xMidYMid meet">
<g transform="translate(0.000000,168.000000) scale(0.100000,-0.100000)"
fill="#000000" stroke="none">
<path d="M460 1215 c-201 -201 -367 -372 -369 -381 -4 -20 725 -754 749 -754
20 0 750 730 750 750 0 20 -731 750 -750 750 -9 0 -180 -164 -380 -365z m700
-70 l315 -315 -318 -318 -317 -317 -317 318 -318 317 197 197 198 198 49 -50
50 -50 -11 -46 c-9 -39 -8 -52 10 -92 14 -31 33 -54 56 -68 l36 -21 0 -119 c0
-70 -4 -119 -10 -119 -5 0 -24 -13 -43 -30 -91 -80 -57 -225 61 -261 115 -34
225 77 191 192 -12 37 -67 99 -89 99 -14 0 -13 237 1 246 6 3 26 -8 44 -26 32
-31 32 -34 27 -95 -4 -54 -1 -69 18 -100 50 -81 166 -96 234 -32 68 65 70 158
5 225 -35 35 -79 47 -143 39 -39 -6 -46 -3 -74 26 -29 30 -31 35 -21 70 29
108 -72 209 -186 185 -38 -8 -41 -7 -89 42 l-51 50 85 85 c46 47 87 85 90 85
3 0 147 -142 320 -315z m-278 -52 c22 -20 23 -61 1 -85 -34 -38 -103 -11 -103
40 0 54 62 81 102 45z m276 -279 c44 -31 20 -104 -35 -104 -57 0 -82 61 -43
100 24 24 48 25 78 4z m-280 -250 c43 -30 17 -104 -36 -104 -57 0 -85 73 -40
104 12 9 29 16 38 16 9 0 26 -7 38 -16z"/>
</g>
</svg>
